<svg width="60" height="60" viewBox="0 0 60 60" fill="none" xmlns="http://www.w3.org/2000/svg">
<path d="M50.28 28.68C49.92 21.36 45.48 14.52 38.88 11.4C31.68 8.16001 22.92 9.48001 16.92 14.52C11.16 19.32 8.52001 27.12 10.2 34.44C11.76 41.64 17.4 47.52 24.48 49.44C33 51.84 40.8 47.76 45.6 40.8C41.28 46.56 34.68 50.4 27.36 49.08C20.04 47.76 14.04 42.24 12.36 35.04C10.56 27.36 14.16 19.32 21 15.36C28.08 11.28 38.04 12.84 42.72 19.8C43.92 21.48 44.76 23.52 45.12 25.56C45.48 27.24 45.36 29.04 45.6 30.72C45.84 32.28 47.16 34.32 48.96 33.24C50.52 32.28 50.4 30.24 50.28 28.68C50.4 29.52 50.28 28.2 50.28 28.68Z" fill="black"/>
</svg>
